<svg viewBox="0 0 24 24" fill="none" xmlns="http://www.w3.org/2000/svg">
  <path d="M12 2.02c-5.51 0-9.98 4.47-9.98 9.98s4.47 9.98 9.98 9.98 9.98-4.47 9.98-9.98S17.51 2.02 12 2.02zM6.46 8.52c.53-.19 1.39-.37 2.46-.5-.17.95-.3 1.95-.37 2.96H6.83c.1-.85.28-1.64.53-2.37l-.9-.09zm0 7.96c-.25-.73-.43-1.52-.53-2.37h1.72c.07 1.01.2 2.01.37 2.96-1.07-.13-1.93-.31-2.46-.5l.9-.09zm10.08 0l.9.09c-.53.19-1.39.37-2.46.5.17-.95.3-1.95.37-2.96h1.72c-.1.85-.28 1.64-.53 2.37zm.53-7.87c.25.73.43 1.52.53 2.37h-1.72c-.07-1.01-.2-2.01-.37-2.96 1.07.13 1.93.31 2.46.5l-.9.09zM12 4.03c.68 0 1.54.73 2.17 1.95-.67-.08-1.41-.13-2.17-.13s-1.5.05-2.17.13C10.46 4.76 11.32 4.03 12 4.03zm-2.54 8.97H12v1.5H9.46c.04-.5.1-.99.18-1.48L12 12.99zm0-2H12v1.5H9.46c-.08-.49-.14-.98-.18-1.48L12 11.02zm5.08 0L12 11.02v1.48c.08.5.14.99.18 1.48L12 13.99v-1.5h2.54zm0 2L12 13.02v1.48c-.08-.5-.14-.99-.18-1.48L12 12.99v-1.5h2.54z" fill="#68A063"/>
</svg>
